name Walk7.mot
datacolumns 19
datarows 30
range 1.91000000 1.93900000
endheader

                time	   L_ground_force_vx	   L_ground_force_vy	   L_ground_force_vz	   L_ground_force_px	   L_ground_force_py	   L_ground_force_pz	   R_ground_force_vx	   R_ground_force_vy	   R_ground_force_vz	   R_ground_force_px	   R_ground_force_py	   R_ground_force_pz	   L_ground_torque_x	   L_ground_torque_y	   L_ground_torque_z	   R_ground_torque_x	   R_ground_torque_y	   R_ground_torque_z	
          1.91000000	          0.00000000	          0.00000000	          0.00000000	          0.00000000	          0.00000000	          0.00000000	         -7.56474018	        515.83301633	        -27.10560032	          0.16430397	          0.00000000	          0.07191569	          0.00000000	          0.00000000	          0.00000000	          0.00000000	          2.07676881	          0.00000000	
          1.91100000	          0.00000000	          0.00000000	          0.00000000	          0.00000000	          0.00000000	          0.00000000	         -7.38436024	        516.05765582	        -27.15464730	          0.16462724	          0.00000000	          0.07180265	          0.00000000	          0.00000000	          0.00000000	          0.00000000	          2.09095184	          0.00000000	
          1.91200000	          0.00000000	          0.00000000	          0.00000000	          0.00000000	          0.00000000	          0.00000000	         -7.22333005	        516.41053726	        -27.18829999	          0.16504169	          0.00000000	          0.07174550	          0.00000000	          0.00000000	          0.00000000	          0.00000000	          2.08933443	          0.00000000	
          1.91300000	          0.00000000	          0.00000000	          0.00000000	          0.00000000	          0.00000000	          0.00000000	         -7.08368008	        516.90409173	        -27.21222756	          0.16554859	          0.00000000	          0.07174123	          0.00000000	          0.00000000	          0.00000000	          0.00000000	          2.07370535	          0.00000000	
          1.91400000	          0.00000000	          0.00000000	          0.00000000	          0.00000000	          0.00000000	          0.00000000	         -6.96237324	        517.51906511	        -27.23769021	          0.16609947	          0.00000000	          0.07177174	          0.00000000	          0.00000000	          0.00000000	          0.00000000	          2.05147065	          0.00000000	
          1.91500000	          0.00000000	          0.00000000	          0.00000000	          0.00000000	          0.00000000	          0.00000000	         -6.85197838	        518.20980636	        -27.27495507	          0.16665668	          0.00000000	          0.07181319	          0.00000000	          0.00000000	          0.00000000	          0.00000000	          2.03270648	          0.00000000	
          1.91600000	          0.00000000	          0.00000000	          0.00000000	          0.00000000	          0.00000000	          0.00000000	         -6.74535187	        518.93578505	        -27.33018541	          0.16722991	          0.00000000	          0.07185218	          0.00000000	          0.00000000	          0.00000000	          0.00000000	          2.02226014	          0.00000000	
          1.91700000	          0.00000000	          0.00000000	          0.00000000	          0.00000000	          0.00000000	          0.00000000	         -6.63014249	        519.66709243	        -27.40061027	          0.16784093	          0.00000000	          0.07187669	          0.00000000	          0.00000000	          0.00000000	          0.00000000	          2.01805370	          0.00000000	
          1.91800000	          0.00000000	          0.00000000	          0.00000000	          0.00000000	          0.00000000	          0.00000000	         -6.48629032	        520.36100212	        -27.47416912	          0.16846945	          0.00000000	          0.07186530	          0.00000000	          0.00000000	          0.00000000	          0.00000000	          2.01975801	          0.00000000	
          1.91900000	          0.00000000	          0.00000000	          0.00000000	          0.00000000	          0.00000000	          0.00000000	         -6.30857154	        520.98316616	        -27.54146448	          0.16907160	          0.00000000	          0.07181321	          0.00000000	          0.00000000	          0.00000000	          0.00000000	          2.03010204	          0.00000000	
          1.92000000	          0.00000000	          0.00000000	          0.00000000	          0.00000000	          0.00000000	          0.00000000	         -6.11963202	        521.54861318	        -27.60875515	          0.16962299	          0.00000000	          0.07174847	          0.00000000	          0.00000000	          0.00000000	          0.00000000	          2.04654066	          0.00000000	
          1.92100000	          0.00000000	          0.00000000	          0.00000000	          0.00000000	          0.00000000	          0.00000000	         -5.94220253	        522.10481502	        -27.69193440	          0.17012631	          0.00000000	          0.07169776	          0.00000000	          0.00000000	          0.00000000	          0.00000000	          2.06203745	          0.00000000	
          1.92200000	          0.00000000	          0.00000000	          0.00000000	          0.00000000	          0.00000000	          0.00000000	         -5.77785578	        522.70098072	        -27.79503395	          0.17061264	          0.00000000	          0.07166165	          0.00000000	          0.00000000	          0.00000000	          0.00000000	          2.07342023	          0.00000000	
          1.92300000	          0.00000000	          0.00000000	          0.00000000	          0.00000000	          0.00000000	          0.00000000	         -5.62124916	        523.38148624	        -27.90479666	          0.17113081	          0.00000000	          0.07163310	          0.00000000	          0.00000000	          0.00000000	          0.00000000	          2.08378858	          0.00000000	
          1.92400000	          0.00000000	          0.00000000	          0.00000000	          0.00000000	          0.00000000	          0.00000000	         -5.47449813	        524.17006714	        -28.00839828	          0.17171139	          0.00000000	          0.07162429	          0.00000000	          0.00000000	          0.00000000	          0.00000000	          2.09771414	          0.00000000	
          1.92500000	          0.00000000	          0.00000000	          0.00000000	          0.00000000	          0.00000000	          0.00000000	         -5.34398721	        525.04966992	        -28.10218601	          0.17234921	          0.00000000	          0.07166607	          0.00000000	          0.00000000	          0.00000000	          0.00000000	          2.11517153	          0.00000000	
          1.92600000	          0.00000000	          0.00000000	          0.00000000	          0.00000000	          0.00000000	          0.00000000	         -5.23369520	        525.95385359	        -28.18515507	          0.17301281	          0.00000000	          0.07176768	          0.00000000	          0.00000000	          0.00000000	          0.00000000	          2.13308025	          0.00000000	
          1.92700000	          0.00000000	          0.00000000	          0.00000000	          0.00000000	          0.00000000	          0.00000000	         -5.14363810	        526.78483889	        -28.25803608	          0.17365491	          0.00000000	          0.07188070	          0.00000000	          0.00000000	          0.00000000	          0.00000000	          2.15060990	          0.00000000	
          1.92800000	          0.00000000	          0.00000000	          0.00000000	          0.00000000	          0.00000000	          0.00000000	         -5.07149440	        527.47269026	        -28.32413749	          0.17423465	          0.00000000	          0.07192653	          0.00000000	          0.00000000	          0.00000000	          0.00000000	          2.16753900	          0.00000000	
          1.92900000	          0.00000000	          0.00000000	          0.00000000	          0.00000000	          0.00000000	          0.00000000	         -5.01543815	        528.04233964	        -28.38579830	          0.17474298	          0.00000000	          0.07187088	          0.00000000	          0.00000000	          0.00000000	          0.00000000	          2.18233006	          0.00000000	
          1.93000000	          0.00000000	          0.00000000	          0.00000000	          0.00000000	          0.00000000	          0.00000000	         -4.97376920	        528.61818557	        -28.44440723	          0.17520294	          0.00000000	          0.07175363	          0.00000000	          0.00000000	          0.00000000	          0.00000000	          2.19474411	          0.00000000	
          1.93100000	          0.00000000	          0.00000000	          0.00000000	          0.00000000	          0.00000000	          0.00000000	         -4.94078087	        529.32747428	        -28.50128887	          0.17564970	          0.00000000	          0.07163355	          0.00000000	          0.00000000	          0.00000000	          0.00000000	          2.20449461	          0.00000000	
          1.93200000	          0.00000000	          0.00000000	          0.00000000	          0.00000000	          0.00000000	          0.00000000	         -4.90958464	        530.19884640	        -28.55639142	          0.17611344	          0.00000000	          0.07153479	          0.00000000	          0.00000000	          0.00000000	          0.00000000	          2.20797632	          0.00000000	
          1.93300000	          0.00000000	          0.00000000	          0.00000000	          0.00000000	          0.00000000	          0.00000000	         -4.87990661	        531.17850663	        -28.61014257	          0.17662259	          0.00000000	          0.07145545	          0.00000000	          0.00000000	          0.00000000	          0.00000000	          2.20193462	          0.00000000	
          1.93400000	          0.00000000	          0.00000000	          0.00000000	          0.00000000	          0.00000000	          0.00000000	         -4.85675787	        532.21309837	        -28.66649096	          0.17720444	          0.00000000	          0.07138945	          0.00000000	          0.00000000	          0.00000000	          0.00000000	          2.18916430	          0.00000000	
          1.93500000	          0.00000000	          0.00000000	          0.00000000	          0.00000000	          0.00000000	          0.00000000	         -4.84197234	        533.28555697	        -28.72993396	          0.17786356	          0.00000000	          0.07133246	          0.00000000	          0.00000000	          0.00000000	          0.00000000	          2.17781669	          0.00000000	
          1.93600000	          0.00000000	          0.00000000	          0.00000000	          0.00000000	          0.00000000	          0.00000000	         -4.83035779	        534.39711544	        -28.79975369	          0.17857067	          0.00000000	          0.07128679	          0.00000000	          0.00000000	          0.00000000	          0.00000000	          2.17482452	          0.00000000	
          1.93700000	          0.00000000	          0.00000000	          0.00000000	          0.00000000	          0.00000000	          0.00000000	         -4.80819086	        535.55060399	        -28.87077459	          0.17928586	          0.00000000	          0.07126318	          0.00000000	          0.00000000	          0.00000000	          0.00000000	          2.17918432	          0.00000000	
          1.93800000	          0.00000000	          0.00000000	          0.00000000	          0.00000000	          0.00000000	          0.00000000	         -4.75373331	        536.74327129	        -28.93841683	          0.17998473	          0.00000000	          0.07126698	          0.00000000	          0.00000000	          0.00000000	          0.00000000	          2.18419824	          0.00000000	
          1.93900000	          0.00000000	          0.00000000	          0.00000000	          0.00000000	          0.00000000	          0.00000000	         -4.65585580	        537.94747413	        -28.99982916	          0.18064646	          0.00000000	          0.07127997	          0.00000000	          0.00000000	          0.00000000	          0.00000000	          2.18571809	          0.00000000	
